<svg width="201" height="40" viewBox="0 0 201 40" fill="none" xmlns="http://www.w3.org/2000/svg">
<path d="M16.4023 11.7852V16.4443H15.9453C15.6745 15.3695 15.374 14.5993 15.0439 14.1338C14.7139 13.6598 14.2611 13.2832 13.6855 13.0039C13.3639 12.8516 12.8011 12.7754 11.9971 12.7754H10.7148V26.0547C10.7148 26.9349 10.7614 27.485 10.8545 27.7051C10.9561 27.9251 11.1465 28.1198 11.4258 28.2891C11.7135 28.4499 12.1029 28.5303 12.5938 28.5303H13.165V29H4.15137V28.5303H4.72266C5.22201 28.5303 5.62402 28.4414 5.92871 28.2637C6.14876 28.1452 6.32227 27.9421 6.44922 27.6543C6.54232 27.4512 6.58887 26.918 6.58887 26.0547V12.7754H5.34473C4.18522 12.7754 3.3431 13.0208 2.81836 13.5117C2.08203 14.1973 1.61654 15.1748 1.42188 16.4443H0.939453V11.7852H16.4023Z" fill="#DE9F3A"/>
<path d="M23.0674 11.7852V18.6533C23.7191 17.9678 24.3158 17.4854 24.8574 17.2061C25.3991 16.9183 25.9619 16.7744 26.5459 16.7744C27.2907 16.7744 27.9255 16.986 28.4502 17.4092C28.9834 17.8324 29.3346 18.3317 29.5039 18.9072C29.6816 19.4743 29.7705 20.4349 29.7705 21.7891V26.4229C29.7705 27.3285 29.8551 27.8955 30.0244 28.124C30.1937 28.3441 30.5365 28.4837 31.0527 28.543V29H25.0352V28.543C25.4583 28.4837 25.7757 28.3145 25.9873 28.0352C26.1396 27.8151 26.2158 27.2777 26.2158 26.4229V21.1289C26.2158 20.1471 26.1777 19.5335 26.1016 19.2881C26.0254 19.0342 25.8942 18.8395 25.708 18.7041C25.5303 18.5602 25.3271 18.4883 25.0986 18.4883C24.7601 18.4883 24.43 18.6068 24.1084 18.8438C23.7868 19.0723 23.4398 19.4785 23.0674 20.0625V26.4229C23.0674 27.2692 23.1309 27.7982 23.2578 28.0098C23.4186 28.2975 23.7487 28.4753 24.248 28.543V29H18.2305V28.543C18.7298 28.4922 19.0853 28.3314 19.2969 28.0605C19.4408 27.8743 19.5127 27.3285 19.5127 26.4229V14.3623C19.5127 13.4652 19.4281 12.9066 19.2588 12.6865C19.098 12.4665 18.7552 12.3226 18.2305 12.2549V11.7852H23.0674Z" fill="#DE9F3A"/>
<path d="M42.7451 22.6396H36.2324C36.3086 24.2139 36.7275 25.458 37.4893 26.3721C38.0732 27.0745 38.7757 27.4258 39.5967 27.4258C40.1045 27.4258 40.5658 27.2861 40.9805 27.0068C41.3952 26.7191 41.8395 26.207 42.3135 25.4707L42.7451 25.75C42.1019 27.0618 41.3909 27.9928 40.6123 28.543C39.8337 29.0846 38.9323 29.3555 37.9082 29.3555C36.1478 29.3555 34.8148 28.6784 33.9092 27.3242C33.1813 26.2324 32.8174 24.8783 32.8174 23.2617C32.8174 21.2812 33.3506 19.707 34.417 18.5391C35.4919 17.3626 36.7487 16.7744 38.1875 16.7744C39.3893 16.7744 40.4303 17.2695 41.3105 18.2598C42.1992 19.2415 42.6774 20.7015 42.7451 22.6396ZM39.6221 21.7891C39.6221 20.4264 39.5459 19.4912 39.3936 18.9834C39.2497 18.4756 39.0212 18.0905 38.708 17.8281C38.5303 17.6758 38.2933 17.5996 37.9971 17.5996C37.557 17.5996 37.1973 17.8154 36.918 18.2471C36.4186 19.0003 36.1689 20.0329 36.1689 21.3447V21.7891H39.6221Z" fill="#DE9F3A"/>
<path d="M62.0801 11.3916L62.2197 17.1299H61.6992C61.4538 15.6911 60.8486 14.5358 59.8838 13.6641C58.9274 12.7839 57.8906 12.3438 56.7734 12.3438C55.9102 12.3438 55.2246 12.5765 54.7168 13.042C54.2174 13.499 53.9678 14.028 53.9678 14.6289C53.9678 15.0098 54.0566 15.3483 54.2344 15.6445C54.4798 16.0423 54.8734 16.4359 55.415 16.8252C55.8128 17.1045 56.7311 17.5996 58.1699 18.3105C60.1842 19.3008 61.5426 20.236 62.2451 21.1162C62.9391 21.9964 63.2861 23.0036 63.2861 24.1377C63.2861 25.5765 62.7233 26.8164 61.5977 27.8574C60.4805 28.89 59.0586 29.4062 57.332 29.4062C56.7904 29.4062 56.2783 29.3512 55.7959 29.2412C55.3135 29.1312 54.7083 28.9238 53.9805 28.6191C53.5742 28.4499 53.2399 28.3652 52.9775 28.3652C52.7575 28.3652 52.5247 28.4499 52.2793 28.6191C52.0339 28.7884 51.835 29.0465 51.6826 29.3936H51.2129V22.8936H51.6826C52.055 24.7217 52.7702 26.1182 53.8281 27.083C54.8945 28.0394 56.0413 28.5176 57.2686 28.5176C58.2165 28.5176 58.9697 28.2594 59.5283 27.7432C60.0954 27.2269 60.3789 26.626 60.3789 25.9404C60.3789 25.5342 60.2689 25.1406 60.0488 24.7598C59.8372 24.3789 59.5114 24.0192 59.0713 23.6807C58.6312 23.3337 57.8525 22.8851 56.7354 22.335C55.1696 21.5648 54.0439 20.9089 53.3584 20.3672C52.6729 19.8255 52.1439 19.2204 51.7715 18.5518C51.4076 17.8831 51.2256 17.1468 51.2256 16.3428C51.2256 14.9717 51.7292 13.8037 52.7363 12.8389C53.7435 11.874 55.013 11.3916 56.5449 11.3916C57.1035 11.3916 57.6452 11.4593 58.1699 11.5947C58.5677 11.6963 59.0501 11.8867 59.6172 12.166C60.1927 12.4368 60.5947 12.5723 60.8232 12.5723C61.0433 12.5723 61.2168 12.5046 61.3438 12.3691C61.4707 12.2337 61.5892 11.9079 61.6992 11.3916H62.0801Z" fill="#DE9F3A"/>
<path d="M69.8115 27.7939V32.2119C69.8115 32.8213 69.8581 33.236 69.9512 33.4561C70.0527 33.6761 70.2051 33.8369 70.4082 33.9385C70.6113 34.04 71.0091 34.0908 71.6016 34.0908V34.5605H64.835V34.0908C65.3597 34.0739 65.749 33.9258 66.0029 33.6465C66.1722 33.4518 66.2568 32.9482 66.2568 32.1357V19.6055C66.2568 18.7676 66.1595 18.2344 65.9648 18.0059C65.7702 17.7689 65.3936 17.6335 64.835 17.5996V17.1299H69.8115V18.6914C70.2262 18.082 70.6494 17.6419 71.0811 17.3711C71.6989 16.9733 72.3717 16.7744 73.0996 16.7744C73.9714 16.7744 74.7627 17.0495 75.4736 17.5996C76.193 18.1497 76.7389 18.9115 77.1113 19.8848C77.4837 20.8496 77.6699 21.8906 77.6699 23.0078C77.6699 24.2096 77.4753 25.3099 77.0859 26.3086C76.7051 27.2988 76.1465 28.0563 75.4102 28.5811C74.6823 29.0973 73.8698 29.3555 72.9727 29.3555C72.321 29.3555 71.7116 29.2116 71.1445 28.9238C70.7214 28.7038 70.277 28.3271 69.8115 27.7939ZM69.8115 26.5117C70.5394 27.5443 71.318 28.0605 72.1475 28.0605C72.6045 28.0605 72.9811 27.8193 73.2773 27.3369C73.7174 26.626 73.9375 25.2718 73.9375 23.2744C73.9375 21.2262 73.6963 19.8255 73.2139 19.0723C72.8923 18.5729 72.4606 18.3232 71.9189 18.3232C71.0641 18.3232 70.3617 18.9411 69.8115 20.1768V26.5117Z" fill="#DE9F3A"/>
<path d="M82.5449 11.3789C83.0951 11.3789 83.5605 11.5736 83.9414 11.9629C84.3223 12.3438 84.5127 12.805 84.5127 13.3467C84.5127 13.8883 84.318 14.3496 83.9287 14.7305C83.5479 15.1113 83.0866 15.3018 82.5449 15.3018C82.0033 15.3018 81.542 15.1113 81.1611 14.7305C80.7803 14.3496 80.5898 13.8883 80.5898 13.3467C80.5898 12.805 80.7803 12.3438 81.1611 11.9629C81.542 11.5736 82.0033 11.3789 82.5449 11.3789ZM84.3223 17.1299V26.5371C84.3223 27.375 84.4196 27.9124 84.6143 28.1494C84.8089 28.3779 85.1898 28.5091 85.7568 28.543V29H79.3457V28.543C79.8704 28.526 80.2598 28.3737 80.5137 28.0859C80.6829 27.8913 80.7676 27.375 80.7676 26.5371V19.6055C80.7676 18.7676 80.6702 18.2344 80.4756 18.0059C80.2809 17.7689 79.9043 17.6335 79.3457 17.5996V17.1299H84.3223Z" fill="#DE9F3A"/>
<path d="M96.6113 25.9404L97.0049 26.2451C96.4463 27.2946 95.748 28.0775 94.9102 28.5938C94.0807 29.1016 93.1963 29.3555 92.2568 29.3555C90.6742 29.3555 89.4089 28.7588 88.4609 27.5654C87.513 26.3721 87.0391 24.9375 87.0391 23.2617C87.0391 21.6452 87.4707 20.2233 88.334 18.9961C89.375 17.515 90.8096 16.7744 92.6377 16.7744C93.8649 16.7744 94.8382 17.0833 95.5576 17.7012C96.2855 18.319 96.6494 19.0088 96.6494 19.7705C96.6494 20.2529 96.5013 20.638 96.2051 20.9258C95.9173 21.2135 95.5365 21.3574 95.0625 21.3574C94.5631 21.3574 94.1484 21.1924 93.8184 20.8623C93.4967 20.5322 93.2979 19.944 93.2217 19.0977C93.1709 18.5645 93.0482 18.1921 92.8535 17.9805C92.6589 17.7689 92.4303 17.6631 92.168 17.6631C91.7617 17.6631 91.4147 17.8789 91.127 18.3105C90.6869 18.9622 90.4668 19.9609 90.4668 21.3066C90.4668 22.4238 90.6445 23.4945 91 24.5186C91.3555 25.5342 91.8421 26.2917 92.46 26.791C92.9255 27.1549 93.4756 27.3369 94.1104 27.3369C94.5251 27.3369 94.9186 27.2396 95.291 27.0449C95.6634 26.8503 96.1035 26.4821 96.6113 25.9404Z" fill="#DE9F3A"/>
<path d="M108.532 22.6396H102.02C102.096 24.2139 102.515 25.458 103.276 26.3721C103.86 27.0745 104.563 27.4258 105.384 27.4258C105.892 27.4258 106.353 27.2861 106.768 27.0068C107.182 26.7191 107.627 26.207 108.101 25.4707L108.532 25.75C107.889 27.0618 107.178 27.9928 106.399 28.543C105.621 29.0846 104.719 29.3555 103.695 29.3555C101.935 29.3555 100.602 28.6784 99.6963 27.3242C98.9684 26.2324 98.6045 24.8783 98.6045 23.2617C98.6045 21.2812 99.1377 19.707 100.204 18.5391C101.279 17.3626 102.536 16.7744 103.975 16.7744C105.176 16.7744 106.217 17.2695 107.098 18.2598C107.986 19.2415 108.465 20.7015 108.532 22.6396ZM105.409 21.7891C105.409 20.4264 105.333 19.4912 105.181 18.9834C105.037 18.4756 104.808 18.0905 104.495 17.8281C104.317 17.6758 104.08 17.5996 103.784 17.5996C103.344 17.5996 102.984 17.8154 102.705 18.2471C102.206 19.0003 101.956 20.0329 101.956 21.3447V21.7891H105.409Z" fill="#DE9F3A"/>
<path d="M133.593 11.3916V17.46H133.123C132.556 15.8011 131.705 14.54 130.571 13.6768C129.437 12.8135 128.197 12.3818 126.852 12.3818C125.565 12.3818 124.494 12.7458 123.64 13.4736C122.785 14.193 122.18 15.2002 121.824 16.4951C121.469 17.79 121.291 19.1188 121.291 20.4814C121.291 22.1318 121.486 23.5791 121.875 24.8232C122.264 26.0674 122.891 26.9814 123.754 27.5654C124.626 28.1494 125.658 28.4414 126.852 28.4414C127.266 28.4414 127.689 28.3991 128.121 28.3145C128.561 28.2214 129.01 28.0902 129.467 27.9209V24.3408C129.467 23.6637 129.42 23.2279 129.327 23.0332C129.234 22.8301 129.039 22.6481 128.743 22.4873C128.455 22.3265 128.104 22.2461 127.689 22.2461H127.245V21.7764H135.611V22.2461C134.977 22.2884 134.532 22.3773 134.278 22.5127C134.033 22.6396 133.842 22.8555 133.707 23.1602C133.631 23.321 133.593 23.7145 133.593 24.3408V27.9209C132.493 28.4118 131.346 28.7799 130.152 29.0254C128.967 29.2793 127.736 29.4062 126.458 29.4062C124.825 29.4062 123.466 29.1862 122.383 28.7461C121.308 28.2975 120.356 27.7135 119.526 26.9941C118.705 26.2663 118.062 25.4495 117.597 24.5439C117.004 23.376 116.708 22.0684 116.708 20.6211C116.708 18.0312 117.618 15.8434 119.438 14.0576C121.257 12.2718 123.547 11.3789 126.306 11.3789C127.16 11.3789 127.931 11.4466 128.616 11.582C128.989 11.6497 129.59 11.8444 130.419 12.166C131.257 12.4792 131.752 12.6357 131.904 12.6357C132.141 12.6357 132.361 12.5511 132.564 12.3818C132.768 12.2041 132.954 11.874 133.123 11.3916H133.593Z" fill="#DE9F3A"/>
<path d="M143.317 27.248C141.87 28.526 140.571 29.165 139.42 29.165C138.743 29.165 138.18 28.945 137.731 28.5049C137.283 28.0563 137.059 27.4977 137.059 26.8291C137.059 25.9235 137.448 25.111 138.227 24.3916C139.005 23.6637 140.702 22.6989 143.317 21.4971V20.3037C143.317 19.4066 143.267 18.8438 143.165 18.6152C143.072 18.3783 142.89 18.1751 142.619 18.0059C142.348 17.8281 142.044 17.7393 141.705 17.7393C141.155 17.7393 140.702 17.862 140.347 18.1074C140.127 18.2598 140.017 18.4375 140.017 18.6406C140.017 18.8184 140.135 19.0384 140.372 19.3008C140.694 19.6647 140.854 20.016 140.854 20.3545C140.854 20.7692 140.698 21.1247 140.385 21.4209C140.08 21.7087 139.678 21.8525 139.179 21.8525C138.646 21.8525 138.197 21.6917 137.833 21.3701C137.478 21.0485 137.3 20.6719 137.3 20.2402C137.3 19.6309 137.541 19.0511 138.023 18.501C138.506 17.9424 139.179 17.515 140.042 17.2188C140.905 16.9225 141.802 16.7744 142.733 16.7744C143.859 16.7744 144.748 17.0156 145.399 17.498C146.06 17.972 146.487 18.4883 146.682 19.0469C146.8 19.4023 146.859 20.2191 146.859 21.4971V26.1055C146.859 26.6471 146.881 26.9899 146.923 27.1338C146.965 27.2692 147.029 27.3708 147.113 27.4385C147.198 27.5062 147.295 27.54 147.405 27.54C147.625 27.54 147.85 27.3835 148.078 27.0703L148.459 27.375C148.036 28.0013 147.596 28.4583 147.139 28.7461C146.69 29.0254 146.178 29.165 145.603 29.165C144.925 29.165 144.396 29.0085 144.016 28.6953C143.635 28.3737 143.402 27.8913 143.317 27.248ZM143.317 26.3213V22.3477C142.293 22.9486 141.532 23.5918 141.032 24.2773C140.702 24.7344 140.537 25.1956 140.537 25.6611C140.537 26.0505 140.677 26.3932 140.956 26.6895C141.168 26.918 141.464 27.0322 141.845 27.0322C142.268 27.0322 142.759 26.7952 143.317 26.3213Z" fill="#DE9F3A"/>
<path d="M154.692 17.1299V19.8213C155.479 18.5941 156.169 17.7816 156.762 17.3838C157.354 16.9775 157.925 16.7744 158.476 16.7744C158.95 16.7744 159.326 16.9225 159.605 17.2188C159.893 17.5065 160.037 17.917 160.037 18.4502C160.037 19.0173 159.897 19.4574 159.618 19.7705C159.347 20.0837 159.017 20.2402 158.628 20.2402C158.179 20.2402 157.79 20.0964 157.46 19.8086C157.13 19.5208 156.935 19.36 156.876 19.3262C156.791 19.2754 156.694 19.25 156.584 19.25C156.339 19.25 156.106 19.3431 155.886 19.5293C155.539 19.8171 155.276 20.2275 155.099 20.7607C154.828 21.5817 154.692 22.4873 154.692 23.4775V26.207L154.705 26.918C154.705 27.4004 154.735 27.7093 154.794 27.8447C154.896 28.0732 155.044 28.2425 155.238 28.3525C155.441 28.4541 155.78 28.5176 156.254 28.543V29H149.843V28.543C150.359 28.5007 150.706 28.361 150.884 28.124C151.07 27.8786 151.163 27.2396 151.163 26.207V19.6436C151.163 18.9665 151.129 18.5348 151.062 18.3486C150.977 18.1117 150.854 17.9382 150.693 17.8281C150.533 17.7181 150.249 17.6419 149.843 17.5996V17.1299H154.692Z" fill="#DE9F3A"/>
<path d="M172.859 11.7852V25.4453C172.859 26.3678 172.885 26.9137 172.936 27.083C173.003 27.3623 173.13 27.5697 173.316 27.7051C173.511 27.8405 173.845 27.9251 174.319 27.959V28.3779L169.305 29.3555V27.4766C168.704 28.2044 168.166 28.6995 167.692 28.9619C167.227 29.2243 166.698 29.3555 166.105 29.3555C164.59 29.3555 163.393 28.6784 162.513 27.3242C161.802 26.224 161.446 24.874 161.446 23.2744C161.446 21.9964 161.666 20.8538 162.106 19.8467C162.547 18.8311 163.147 18.0651 163.909 17.5488C164.679 17.0326 165.505 16.7744 166.385 16.7744C166.952 16.7744 167.455 16.8844 167.896 17.1045C168.336 17.3245 168.805 17.7096 169.305 18.2598V14.6797C169.305 13.7741 169.267 13.2282 169.19 13.042C169.089 12.7965 168.937 12.6146 168.733 12.4961C168.53 12.3776 168.149 12.3184 167.591 12.3184V11.7852H172.859ZM169.305 19.834C168.678 18.6322 167.912 18.0312 167.007 18.0312C166.694 18.0312 166.436 18.1159 166.232 18.2852C165.919 18.5475 165.661 19.0088 165.458 19.6689C165.263 20.3291 165.166 21.3405 165.166 22.7031C165.166 24.2012 165.276 25.3099 165.496 26.0293C165.716 26.7487 166.017 27.2692 166.397 27.5908C166.592 27.7516 166.859 27.832 167.197 27.832C167.942 27.832 168.645 27.248 169.305 26.0801V19.834Z" fill="#DE9F3A"/>
<path d="M185.847 22.6396H179.334C179.41 24.2139 179.829 25.458 180.591 26.3721C181.175 27.0745 181.877 27.4258 182.698 27.4258C183.206 27.4258 183.667 27.2861 184.082 27.0068C184.497 26.7191 184.941 26.207 185.415 25.4707L185.847 25.75C185.203 27.0618 184.493 27.9928 183.714 28.543C182.935 29.0846 182.034 29.3555 181.01 29.3555C179.249 29.3555 177.916 28.6784 177.011 27.3242C176.283 26.2324 175.919 24.8783 175.919 23.2617C175.919 21.2812 176.452 19.707 177.519 18.5391C178.593 17.3626 179.85 16.7744 181.289 16.7744C182.491 16.7744 183.532 17.2695 184.412 18.2598C185.301 19.2415 185.779 20.7015 185.847 22.6396ZM182.724 21.7891C182.724 20.4264 182.647 19.4912 182.495 18.9834C182.351 18.4756 182.123 18.0905 181.81 17.8281C181.632 17.6758 181.395 17.5996 181.099 17.5996C180.659 17.5996 180.299 17.8154 180.02 18.2471C179.52 19.0003 179.271 20.0329 179.271 21.3447V21.7891H182.724Z" fill="#DE9F3A"/>
<path d="M192.194 17.1299V18.666C192.804 18.0059 193.388 17.5277 193.946 17.2314C194.505 16.9268 195.106 16.7744 195.749 16.7744C196.519 16.7744 197.158 16.9902 197.666 17.4219C198.174 17.8451 198.512 18.374 198.682 19.0088C198.817 19.4912 198.885 20.418 198.885 21.7891V26.4102C198.885 27.3242 198.965 27.8955 199.126 28.124C199.295 28.3441 199.642 28.4837 200.167 28.543V29H194.162V28.543C194.611 28.4837 194.932 28.2975 195.127 27.9844C195.262 27.7728 195.33 27.248 195.33 26.4102V21.1289C195.33 20.1556 195.292 19.542 195.216 19.2881C195.14 19.0342 195.008 18.8395 194.822 18.7041C194.645 18.5602 194.446 18.4883 194.226 18.4883C193.498 18.4883 192.821 19.0088 192.194 20.0498V26.4102C192.194 27.2988 192.275 27.8617 192.436 28.0986C192.605 28.3356 192.914 28.4837 193.362 28.543V29H187.357V28.543C187.857 28.4922 188.212 28.3314 188.424 28.0605C188.568 27.8743 188.64 27.3242 188.64 26.4102V19.707C188.64 18.8099 188.555 18.2513 188.386 18.0312C188.225 17.8112 187.882 17.6673 187.357 17.5996V17.1299H192.194Z" fill="#DE9F3A"/>
</svg>
